<svg width="107" height="25" viewBox="0 0 107 25" fill="none" xmlns="http://www.w3.org/2000/svg">
<path d="M7.4375 13.75H2.79688L2.78125 10.8438H6.89062C7.52604 10.8438 8.06771 10.7188 8.51562 10.4688C8.96354 10.2188 9.30208 9.85417 9.53125 9.375C9.77083 8.89583 9.89062 8.31771 9.89062 7.64062C9.89062 6.89062 9.78125 6.28125 9.5625 5.8125C9.35417 5.33333 9.03125 4.98438 8.59375 4.76562C8.15625 4.54688 7.59375 4.4375 6.90625 4.4375H3.92188V24H0.125V1.25H6.90625C7.96875 1.25 8.91667 1.36979 9.75 1.60938C10.5938 1.84896 11.3073 2.22396 11.8906 2.73438C12.474 3.23438 12.9167 3.875 13.2188 4.65625C13.5312 5.42708 13.6875 6.34375 13.6875 7.40625C13.6875 8.33333 13.4896 9.1875 13.0938 9.96875C12.6979 10.7396 12.1094 11.375 11.3281 11.875C10.5573 12.3646 9.59896 12.6562 8.45312 12.75L7.4375 13.75ZM7.29688 24H1.54688L3.29688 20.8281H7.29688C7.97396 20.8281 8.53125 20.6823 8.96875 20.3906C9.40625 20.099 9.73438 19.6927 9.95312 19.1719C10.1719 18.651 10.2812 18.0417 10.2812 17.3438C10.2812 16.6146 10.1875 15.9792 10 15.4375C9.8125 14.8958 9.51042 14.4792 9.09375 14.1875C8.67708 13.8958 8.125 13.75 7.4375 13.75H3.60938L3.64062 10.8438H8.53125L9.40625 11.9531C10.5 11.974 11.3906 12.2448 12.0781 12.7656C12.7656 13.276 13.2708 13.9375 13.5938 14.75C13.9167 15.5625 14.0781 16.4323 14.0781 17.3594C14.0781 18.8073 13.8073 20.026 13.2656 21.0156C12.7344 21.9948 11.9635 22.7396 10.9531 23.25C9.94271 23.75 8.72396 24 7.29688 24ZM21.8281 1.25V24H18.0312V1.25H21.8281ZM41.1094 12.3281V21.2969C40.8281 21.6406 40.401 22.0521 39.8281 22.5312C39.2656 23 38.5052 23.4167 37.5469 23.7812C36.599 24.1354 35.401 24.3125 33.9531 24.3125C32.7344 24.3125 31.6198 24.1146 30.6094 23.7188C29.6094 23.3229 28.75 22.724 28.0312 21.9219C27.3125 21.1198 26.7604 20.1198 26.375 18.9219C25.9896 17.7135 25.7969 16.2865 25.7969 14.6406V10.5938C25.7969 8.96875 25.9688 7.55208 26.3125 6.34375C26.6667 5.13542 27.1823 4.13021 27.8594 3.32812C28.5365 2.51562 29.3594 1.91667 30.3281 1.53125C31.2969 1.13542 32.4115 0.9375 33.6719 0.9375C35.2656 0.9375 36.5938 1.21875 37.6562 1.78125C38.7292 2.33333 39.5469 3.15625 40.1094 4.25C40.6823 5.33333 41.0156 6.65625 41.1094 8.21875H37.4062C37.3229 7.26042 37.1406 6.48438 36.8594 5.89062C36.5885 5.28646 36.1979 4.83854 35.6875 4.54688C35.1771 4.25521 34.5208 4.10938 33.7188 4.10938C32.9896 4.10938 32.3646 4.23438 31.8438 4.48438C31.3229 4.73438 30.8958 5.125 30.5625 5.65625C30.2292 6.17708 29.9844 6.84375 29.8281 7.65625C29.6719 8.46875 29.5938 9.4375 29.5938 10.5625V14.6406C29.5938 15.7865 29.6927 16.7708 29.8906 17.5938C30.0885 18.4167 30.375 19.0938 30.75 19.625C31.1354 20.1458 31.6094 20.5312 32.1719 20.7812C32.7344 21.0208 33.375 21.1406 34.0938 21.1406C34.8021 21.1406 35.3646 21.0677 35.7812 20.9219C36.1979 20.776 36.5208 20.6146 36.75 20.4375C36.9896 20.25 37.1823 20.1042 37.3281 20V15.3125H33.6562V12.3281H41.1094Z" fill="#005382" fill-opacity="0.8"/>
<path d="M48.8281 1.25V24H45.0312V1.25H48.8281ZM60.1875 1.25L52.6094 12.2344L48.0625 17.8125L47.3438 13.8438L50.4844 9.1875L55.5938 1.25H60.1875ZM56.0156 24L50.25 13.25L52.8594 10.5469L60.5 24H56.0156ZM66.5781 1.25V24H62.7812V1.25H66.5781ZM86.3906 1.25V24H82.6719L74.6406 8.25V24H70.9688V1.25H74.6406L82.7344 17.1094V1.25H86.3906ZM106.125 10.7656V14.6406C106.125 16.2448 105.938 17.651 105.562 18.8594C105.198 20.0677 104.667 21.0781 103.969 21.8906C103.281 22.6927 102.448 23.2969 101.469 23.7031C100.5 24.1094 99.4167 24.3125 98.2188 24.3125C97.0312 24.3125 95.9479 24.1094 94.9688 23.7031C94 23.2969 93.1615 22.6927 92.4531 21.8906C91.7552 21.0781 91.2135 20.0677 90.8281 18.8594C90.4531 17.651 90.2656 16.2448 90.2656 14.6406V10.7656C90.2656 9.14062 90.4531 7.71875 90.8281 6.5C91.2031 5.27083 91.7396 4.24479 92.4375 3.42188C93.1458 2.59896 93.9844 1.97917 94.9531 1.5625C95.9323 1.14583 97.0104 0.9375 98.1875 0.9375C99.3854 0.9375 100.469 1.14583 101.438 1.5625C102.417 1.97917 103.255 2.59896 103.953 3.42188C104.651 4.24479 105.188 5.27083 105.562 6.5C105.938 7.71875 106.125 9.14062 106.125 10.7656ZM102.359 14.6406V10.7344C102.359 9.57812 102.266 8.58854 102.078 7.76562C101.901 6.93229 101.635 6.25521 101.281 5.73438C100.927 5.20312 100.49 4.8125 99.9688 4.5625C99.4583 4.30208 98.8646 4.17188 98.1875 4.17188C97.5312 4.17188 96.9427 4.30208 96.4219 4.5625C95.9115 4.8125 95.474 5.20312 95.1094 5.73438C94.7552 6.25521 94.4844 6.93229 94.2969 7.76562C94.1198 8.58854 94.0312 9.57812 94.0312 10.7344V14.6406C94.0312 15.776 94.125 16.7552 94.3125 17.5781C94.5 18.3906 94.7708 19.0573 95.125 19.5781C95.4896 20.0885 95.9323 20.4688 96.4531 20.7188C96.974 20.9688 97.5625 21.0938 98.2188 21.0938C98.8854 21.0938 99.4792 20.9688 100 20.7188C100.521 20.4688 100.953 20.0885 101.297 19.5781C101.651 19.0573 101.917 18.3906 102.094 17.5781C102.271 16.7552 102.359 15.776 102.359 14.6406Z" fill="white"/>
</svg>
