<svg width="115" height="22" viewBox="0 0 115 22" fill="none" xmlns="http://www.w3.org/2000/svg">
<path d="M0.769886 21V0.636363H8.9233C10.4214 0.636363 11.6709 0.858428 12.6719 1.30256C13.6728 1.74669 14.4252 2.36316 14.929 3.15199C15.4328 3.93419 15.6847 4.8357 15.6847 5.85653C15.6847 6.65199 15.5256 7.35133 15.2074 7.95455C14.8892 8.55114 14.4517 9.04167 13.8949 9.42614C13.3447 9.80398 12.715 10.0724 12.0057 10.2315V10.4304C12.7813 10.4635 13.5071 10.6823 14.1832 11.0866C14.866 11.491 15.4195 12.0578 15.8438 12.7869C16.268 13.5095 16.4801 14.3712 16.4801 15.3722C16.4801 16.4527 16.2116 17.4171 15.6747 18.2656C15.1444 19.1075 14.3589 19.7737 13.3182 20.2642C12.2775 20.7547 10.9948 21 9.47017 21H0.769886ZM5.07528 17.4801H8.58523C9.78504 17.4801 10.66 17.2514 11.2102 16.794C11.7604 16.33 12.0355 15.7135 12.0355 14.9446C12.0355 14.3812 11.8996 13.884 11.6278 13.4531C11.3561 13.0223 10.9683 12.6842 10.4645 12.4389C9.96733 12.1937 9.37405 12.071 8.68466 12.071H5.07528V17.4801ZM5.07528 9.15767H8.26705C8.85701 9.15767 9.38068 9.05492 9.83807 8.84943C10.3021 8.63731 10.6667 8.33902 10.9318 7.95455C11.2036 7.57008 11.3395 7.10938 11.3395 6.57244C11.3395 5.83665 11.0777 5.24337 10.554 4.79261C10.0369 4.34186 9.30114 4.11648 8.34659 4.11648H5.07528V9.15767ZM23.587 0.636363V21H19.2816V0.636363H23.587ZM40.6321 7.21875C40.4929 6.73485 40.2973 6.30729 40.0455 5.93608C39.7936 5.55824 39.4853 5.24006 39.1207 4.98153C38.7628 4.71638 38.3518 4.5142 37.8878 4.375C37.4304 4.2358 36.9233 4.16619 36.3665 4.16619C35.3258 4.16619 34.411 4.42472 33.6222 4.94176C32.84 5.45881 32.2301 6.21117 31.7926 7.19886C31.3551 8.17992 31.1364 9.37973 31.1364 10.7983C31.1364 12.2169 31.3518 13.4233 31.7827 14.4176C32.2135 15.4119 32.8234 16.1709 33.6122 16.6946C34.401 17.2116 35.3324 17.4702 36.4062 17.4702C37.3807 17.4702 38.2126 17.2978 38.902 16.9531C39.598 16.6018 40.1283 16.108 40.4929 15.4716C40.8641 14.8352 41.0497 14.0829 41.0497 13.2145L41.9247 13.3438H36.6747V10.1023H45.196V12.6676C45.196 14.4574 44.8182 15.9953 44.0625 17.2812C43.3068 18.5606 42.2661 19.5483 40.9403 20.2443C39.6146 20.9337 38.0966 21.2784 36.3864 21.2784C34.4773 21.2784 32.8002 20.8575 31.3551 20.0156C29.91 19.1671 28.7831 17.964 27.9744 16.4062C27.1723 14.8419 26.7713 12.9858 26.7713 10.8381C26.7713 9.1875 27.0099 7.71591 27.4872 6.42329C27.9711 5.12405 28.6473 4.02367 29.5156 3.12216C30.384 2.22064 31.3949 1.53456 32.5483 1.06392C33.7017 0.593276 34.9512 0.357954 36.2969 0.357954C37.4503 0.357954 38.5241 0.526988 39.5185 0.865057C40.5128 1.1965 41.3944 1.66714 42.1634 2.27699C42.9389 2.88684 43.572 3.61269 44.0625 4.45454C44.553 5.28977 44.8679 6.21117 45.0071 7.21875H40.6321Z" fill="white"/>
<path d="M48.43 21V0.636363H52.7354V9.61506H53.0039L60.332 0.636363H65.4925L57.9357 9.75426L65.582 21H60.4315L54.8533 12.6278L52.7354 15.2131V21H48.43ZM72.0401 0.636363V21H67.7347V0.636363H72.0401ZM92.6151 0.636363V21H88.8963L80.0369 8.18324H79.8878V21H75.5824V0.636363H79.3608L88.1506 13.4432H88.3295V0.636363H92.6151ZM114.885 10.8182C114.885 13.0388 114.464 14.928 113.623 16.4858C112.787 18.0436 111.647 19.2334 110.202 20.0554C108.764 20.8707 107.146 21.2784 105.35 21.2784C103.54 21.2784 101.916 20.8674 100.478 20.0455C99.0392 19.2235 97.9023 18.0336 97.0671 16.4759C96.2319 14.9181 95.8143 13.0322 95.8143 10.8182C95.8143 8.59754 96.2319 6.70833 97.0671 5.15057C97.9023 3.5928 99.0392 2.40625 100.478 1.59091C101.916 0.768939 103.54 0.357954 105.35 0.357954C107.146 0.357954 108.764 0.768939 110.202 1.59091C111.647 2.40625 112.787 3.5928 113.623 5.15057C114.464 6.70833 114.885 8.59754 114.885 10.8182ZM110.52 10.8182C110.52 9.37973 110.305 8.16667 109.874 7.17898C109.45 6.19129 108.85 5.44224 108.074 4.93182C107.299 4.4214 106.391 4.16619 105.35 4.16619C104.309 4.16619 103.401 4.4214 102.625 4.93182C101.85 5.44224 101.247 6.19129 100.816 7.17898C100.391 8.16667 100.179 9.37973 100.179 10.8182C100.179 12.2566 100.391 13.4697 100.816 14.4574C101.247 15.4451 101.85 16.1941 102.625 16.7045C103.401 17.215 104.309 17.4702 105.35 17.4702C106.391 17.4702 107.299 17.215 108.074 16.7045C108.85 16.1941 109.45 15.4451 109.874 14.4574C110.305 13.4697 110.52 12.2566 110.52 10.8182Z" fill="#005382"/>
</svg>
